<svg xmlns="http://www.w3.org/2000/svg" viewBox="0 0 512 512" role="img" aria-label="Brokai Labs">
  <rect width="512" height="512" rx="92" fill="#1A0F00"/>
  <circle cx="256" cy="256" r="166" fill="none" stroke="#C9A84C" stroke-width="18"/>
  <path d="M167 308V160h92c37 0 62 23 62 56 0 20-10 37-26 47 25 8 41 27 41 57 0 38-29 65-71 65h-98v-77Zm52-89h34c12 0 20-7 20-18s-8-18-20-18h-34v36Zm0 124h42c15 0 25-9 25-23 0-15-10-24-25-24h-42v47Z" fill="#F0EBE0"/>
  <path d="M350 146c30 34 48 79 48 128 0 87-58 160-138 183" fill="none" stroke="#5A9E3A" stroke-width="16" stroke-linecap="round"/>
  <path d="M157 407c-28-34-45-77-45-124 0-84 53-155 128-181" fill="none" stroke="#FF9966" stroke-width="16" stroke-linecap="round"/>
</svg>
